HIERARCHY
ROOT root
{
	OFFSET	0	13.1	24.9
	CHANNELS 6  Xposition Yposition Zposition Xrotation Yrotation Zrotation
	JOINT spine_1
	{
		OFFSET	0	9.99999	0
		CHANNELS 3  Xrotation Yrotation Zrotation
		JOINT spine_2
		{
			OFFSET	0	112	-10
			CHANNELS 3  Xrotation Yrotation Zrotation
			JOINT spine_3
			{
				OFFSET	0	206.5	19.3
				CHANNELS 3  Xrotation Yrotation Zrotation
				JOINT spine_4
				{
					OFFSET	0	110.4	14.6
					CHANNELS 3  Xrotation Yrotation Zrotation
					JOINT neck_1
					{
						OFFSET	0	71.8	-50.3
						CHANNELS 3  Xrotation Yrotation Zrotation
						JOINT neck_2
						{
							OFFSET	0	86.2	-25.8
							CHANNELS 3  Xrotation Yrotation Zrotation
							JOINT head_ee
							{
								OFFSET	0	179.8	-8.7
								CHANNELS 3  Xrotation Yrotation Zrotation
								End Site
								{
									OFFSET	1	0	0
								}
							}
						}
					}
					JOINT left_clavicle
					{
						OFFSET	-43.2	22.4	-70.8
						CHANNELS 3  Xrotation Yrotation Zrotation
						JOINT left_shoulder
						{
							OFFSET	-93.9	-5.79999	48.7
							CHANNELS 3  Xrotation Yrotation Zrotation
							JOINT left_elbow
							{
								OFFSET	-291.4	-30.8	15.2
								CHANNELS 3  Xrotation Yrotation Zrotation
								JOINT left_lowarm_twist
								{
									OFFSET	-110.7	-3.89999	13.6
									CHANNELS 3  Xrotation Yrotation Zrotation
									JOINT left_hand
									{
										OFFSET	-110.7	-3.89999	13.6
										CHANNELS 3  Xrotation Yrotation Zrotation
										JOINT left_ee
										{
											OFFSET	-80.8	-5.10001	12.1
											CHANNELS 3  Xrotation Yrotation Zrotation
											End Site
											{
												OFFSET	1	0	0
											}
										}
									}
								}
							}
						}
					}
					JOINT right_clavicle
					{
						OFFSET	43.2	22.4	-70.8
						CHANNELS 3  Xrotation Yrotation Zrotation
						JOINT right_shoulder
						{
							OFFSET	93.9	-5.79999	48.7
							CHANNELS 3  Xrotation Yrotation Zrotation
							JOINT right_elbow
							{
								OFFSET	291.4	-30.8	15.2
								CHANNELS 3  Xrotation Yrotation Zrotation
								JOINT right_lowarm_twist
								{
									OFFSET	110.7	-3.89999	13.6
									CHANNELS 3  Xrotation Yrotation Zrotation
									JOINT right_hand
									{
										OFFSET	110.7	-3.89999	13.6
										CHANNELS 3  Xrotation Yrotation Zrotation
										JOINT right_ee
										{
											OFFSET	80.8	-5.10001	12.1
											CHANNELS 3  Xrotation Yrotation Zrotation
											End Site
											{
												OFFSET	1	0	0
											}
										}
									}
								}
							}
						}
					}
				}
			}
		}
	}
	JOINT left_hip
	{
		OFFSET	-82.8	-127.5	0.300001
		CHANNELS 3  Xrotation Yrotation Zrotation
		JOINT left_knee
		{
			OFFSET	-28.2	-396.7	2.2
			CHANNELS 3  Xrotation Yrotation Zrotation
			JOINT left_ankle
			{
				OFFSET	-11.7	-411.3	35.4
				CHANNELS 3  Xrotation Yrotation Zrotation
				JOINT left_toes
				{
					OFFSET	0	-60	-88.6
					CHANNELS 3  Xrotation Yrotation Zrotation
					JOINT left_foot_ee
					{
						OFFSET	-22.5	-16.5	-42.2
						CHANNELS 3  Xrotation Yrotation Zrotation
						End Site
						{
							OFFSET	1	0	0
						}
					}
				}
			}
		}
	}
	JOINT right_hip
	{
		OFFSET	82.8	-127.5	0.300001
		CHANNELS 3  Xrotation Yrotation Zrotation
		JOINT right_knee
		{
			OFFSET	28.2	-396.7	2.2
			CHANNELS 3  Xrotation Yrotation Zrotation
			JOINT right_ankle
			{
				OFFSET	11.7	-411.3	35.4
				CHANNELS 3  Xrotation Yrotation Zrotation
				JOINT right_toes
				{
					OFFSET	0	-60	-88.6
					CHANNELS 3  Xrotation Yrotation Zrotation
					JOINT right_foot_ee
					{
						OFFSET	22.5	-16.5	-42.2
						CHANNELS 3  Xrotation Yrotation Zrotation
						End Site
						{
							OFFSET	1	0	0
						}
					}
				}
			}
		}
	}
}
MOTION
Frames: 15
Frame Time: 0.02
1766.42 672.867 -1542.12 -23.1423 74.2356 20.8256 2.7574 1.03376 3.49874 2.76385 0.809172 3.55733 2.81286 0.22325 3.64126 2.79524 0.79515 3.56049 -11.3577 10.4388 -6.48127 -11.5034 23.9633 -3.37803 -0.0 0.0 -0.0 -6.3141 24.3297 -5.74059 -25.4099 -3.71671 70.8736 0.492581 -13.713 0.0592296 -5.73576 -0.237058 0.693527 1.51955 21.0753 17.7056 -0.0 0.0 -0.0 13.5151 24.5933 -27.0329 14.0106 15.2279 -64.1121 2.98032 55.8774 -1.58083 10.6945 -0.252298 1.34085 1.01488 14.5035 -0.652011 0.0 0.0 0.0 29.2061 1.45895 -8.94188 -6.29724 0.207582 0.943663 21.0813 12.488 -2.87686 -37.7139 0.0 0.0 -0.0 0.0 -0.0 -18.9757 33.3812 3.58134 -4.87361 -0.169757 -0.728464 41.4114 -11.2842 5.00966 38.3203 -0.0 -0.0 0.0 0.0 0.0 
1750.67 672.546 -1529.98 -24.7217 74.3622 23.2734 2.82111 0.806298 3.14667 2.82642 0.604539 3.19153 2.85892 0.0827318 3.24717 2.8447 0.59426 3.19346 -9.46225 9.96673 -6.06252 -9.47454 22.847 -3.52161 -0.0 0.0 -0.0 -6.2717 23.7971 -5.84219 -24.8659 -2.9505 73.1504 0.561467 -15.5432 0.0766286 -5.82148 -0.241125 0.703705 1.39838 22.6241 17.4209 -0.0 0.0 -0.0 12.4327 24.8972 -24.4935 12.6583 13.8981 -64.8903 3.03195 56.3325 -1.62369 10.5059 -0.25003 1.31687 1.13643 14.0363 -1.67271 0.0 0.0 0.0 30.4224 1.56015 -8.58415 -8.58959 0.257214 1.29192 22.8397 12.8812 -3.09342 -38.7101 0.0 0.0 -0.0 0.0 -0.0 -19.5221 33.6766 4.00463 -4.87336 -0.16975 -0.728427 38.7051 -16.8056 4.84343 39.2949 -0.0 -0.0 0.0 0.0 0.0 
1728.51 674.392 -1526.6 -27.5236 75.0908 26.0418 2.91069 0.597208 3.07574 2.91586 0.400377 3.10747 2.9362 -0.101306 3.13149 2.92273 0.394283 3.10825 -9.75696 10.7688 -3.81588 -9.8625 22.8344 -1.03997 -0.0 0.0 -0.0 -6.17174 23.2724 -5.85818 -24.3499 -2.2804 73.5041 0.624658 -17.1941 0.0944387 -6.31243 -0.264714 0.761885 1.15379 25.1659 16.7006 -0.0 0.0 -0.0 11.9463 25.1127 -23.3558 11.391 13.0793 -66.5053 3.09174 56.8463 -1.6736 9.54563 -0.237257 1.19488 1.3823 13.7851 -3.43688 0.0 0.0 0.0 30.3265 1.75199 -7.9928 -10.8032 0.29188 1.62979 26.1869 10.7659 -3.47646 -39.4693 0.0 0.0 -0.0 0.0 -0.0 -19.6189 33.918 3.9741 -5.73714 -0.19334 -0.858888 36.4882 -20.1212 4.69366 40.1323 -0.0 -0.0 0.0 0.0 0.0 
1707.03 675.339 -1520.56 -29.7286 75.498 28.5563 2.99883 0.518629 2.96605 3.00366 0.328927 2.99301 3.01941 -0.149261 3.00731 3.00694 0.327343 2.99318 -9.12799 10.9029 -3.71554 -9.1985 23.0028 -1.04231 -0.0 0.0 -0.0 -6.24002 23.166 -5.98647 -23.8362 -1.89072 74.2825 0.669389 -18.3454 0.108091 -6.34464 -0.266279 0.765694 1.11182 26.2908 16.784 -0.0 0.0 -0.0 11.7871 23.9202 -23.1145 9.64881 11.7765 -67.5648 3.03046 56.3195 -1.62245 9.27457 -0.233282 1.16048 1.32361 12.3853 -3.65483 0.0 0.0 0.0 30.2363 1.97315 -7.54579 -12.1652 0.306712 1.83824 26.252 12.1964 -3.49143 -40.1278 0.0 0.0 -0.0 0.0 -0.0 -19.1724 33.8642 3.21023 -6.55438 -0.213843 -0.982627 33.5464 -23.7134 4.47184 39.8545 -0.0 -0.0 0.0 0.0 0.0 
1684.57 679.45 -1520.87 -29.8837 75.5628 28.6201 3.123 0.59559 3.26144 3.12883 0.386964 3.29268 3.14915 -0.131866 3.3127 3.13405 0.392678 3.29201 -7.95296 10.3544 -2.69995 -7.96541 21.2295 -0.407205 -0.0 0.0 -0.0 -6.0252 22.9763 -5.73752 -23.8998 -3.49927 73.163 0.676619 -18.53 0.110378 -7.17898 -0.307564 0.864078 1.0428 28.6626 17.0662 -0.0 0.0 -0.0 12.2571 25.1651 -24.0615 7.86664 10.5852 -68.1868 2.67787 52.9803 -1.33475 8.87772 -0.227168 1.11016 1.29474 10.5943 -4.23823 0.0 0.0 0.0 29.5352 1.5763 -7.82041 -15.1096 0.321823 2.28971 30.0537 10.6782 -3.90602 -39.462 0.0 0.0 -0.0 0.0 -0.0 -18.4402 32.5318 2.72329 -9.9528 -0.280107 -1.49984 32.7731 -27.0721 4.4795 39.9576 -0.0 -0.0 0.0 0.0 0.0 
1665.6 679.861 -1511.28 -29.7899 75.86 28.4816 3.11868 0.622911 3.01151 3.12363 0.43011 3.045 3.14489 -0.050713 3.07478 3.13196 0.435298 3.04426 -8.32637 10.2471 -3.30443 -8.34666 21.4667 -0.959084 -0.0 0.0 -0.0 -5.9559 22.4559 -5.78925 -22.4965 -3.06234 73.7111 0.679524 -18.6041 0.111303 -7.05771 -0.301474 0.849815 0.922488 29.4082 16.5964 -0.0 0.0 -0.0 11.8632 25.3723 -23.1384 6.97988 9.65319 -68.7727 2.38733 49.7753 -1.10766 7.50232 -0.203284 0.936093 1.44259 10.4735 -5.29138 0.0 0.0 0.0 29.8785 2.33324 -6.70017 -17.9846 0.314182 2.7307 32.9366 11.6669 -4.21562 -39.4338 0.0 0.0 -0.0 0.0 -0.0 -17.887 32.91 2.47853 -12.325 -0.308128 -1.86272 34.414 -26.1562 4.6329 40.2483 -0.0 -0.0 0.0 0.0 0.0 
1640.25 685.544 -1508.73 -30.2686 75.9517 29.7077 3.33007 0.340225 2.77381 3.33434 0.1631 2.78982 3.34057 -0.265384 2.78197 3.32982 0.17713 2.78897 -7.40025 10.8447 -1.8478 -7.39981 21.5114 0.443031 -0.0 0.0 -0.0 -5.73872 21.1682 -5.83874 -20.4505 -3.12984 73.1481 0.676401 -18.5245 0.110308 -7.12161 -0.304679 0.857332 1.00245 29.371 17.0368 -0.0 0.0 -0.0 12.2415 24.526 -24.0935 4.92338 8.53315 -69.0515 2.0879 45.96 -0.885482 7.68319 -0.206663 0.95895 1.49944 9.90536 -5.9229 0.0 0.0 0.0 27.8096 2.66108 -6.72973 -17.7314 0.315743 2.69189 33.732 12.6187 -4.30462 -38.9288 0.0 0.0 -0.0 0.0 -0.0 -15.4667 31.8511 1.50117 -14.8889 -0.321495 -2.25584 32.4053 -25.9634 4.40607 40.249 -0.0 -0.0 0.0 0.0 0.0 
1621.92 687.329 -1503.41 -27.8333 76.4668 27.409 3.16283 0.263678 2.69498 3.16687 0.091719 2.70629 3.16975 -0.331237 2.68752 3.15968 0.0972027 2.7061 -7.98082 11.3246 -3.09687 -7.99569 23.3208 -0.576592 -0.0 0.0 -0.0 -5.73636 20.9764 -5.88877 -18.5805 -5.29358 71.8427 0.756273 -20.5377 0.137015 -7.2214 -0.309702 0.869065 1.00388 29.2526 17.0115 -0.0 0.0 -0.0 12.4443 24.4249 -24.57 3.53126 7.53471 -69.0956 1.82119 42.0516 -0.700079 7.69815 -0.20694 0.960841 1.51909 9.69505 -6.14725 0.0 0.0 0.0 26.3329 2.78902 -6.55303 -18.9563 0.306597 2.8796 35.5248 13.2437 -4.48964 -38.4108 0.0 0.0 -0.0 0.0 -0.0 -12.691 29.7033 0.729737 -20.018 -0.295425 -3.04211 35.4888 -23.8699 4.68211 40.1677 -0.0 -0.0 0.0 0.0 0.0 
1600.12 687.339 -1501.99 -28.8629 77.4664 28.6099 3.14165 0.301465 2.56951 3.14531 0.137405 2.58348 3.15023 -0.267777 2.57324 3.14102 0.141839 2.58324 -7.31476 10.5102 -2.38021 -7.30009 21.2612 -0.177081 -0.0 0.0 -0.0 -6.4313 21.6037 -6.73131 -15.5678 -6.96988 70.7141 1.00379 -26.4381 0.235794 -7.29944 -0.313644 0.878233 0.972721 29.2689 16.8401 -0.0 0.0 -0.0 12.4992 24.5605 -24.6821 1.57701 6.33033 -69.1313 1.60308 38.4508 -0.55908 7.68842 -0.20676 0.959612 1.47188 8.40699 -6.3812 0.0 0.0 0.0 24.6645 3.20123 -6.00144 -19.9154 0.296637 3.02642 38.5149 13.1142 -4.77258 -37.4752 0.0 0.0 -0.0 0.0 -0.0 -10.8305 27.7473 0.0669151 -24.6816 -0.210769 -3.75255 36.1653 -21.8682 4.70079 40.1863 -0.0 -0.0 0.0 0.0 0.0 
1584.25 689.786 -1495.71 -26.7618 77.879 26.6941 2.96617 0.306199 2.56872 2.96983 0.14218 2.58299 2.97514 -0.270848 2.57269 2.96593 0.138719 2.58318 -7.20635 10.3418 -2.80405 -7.17725 21.2438 -0.658019 -0.0 0.0 -0.0 -6.55076 22.6527 -6.5857 -13.0506 -9.4908 69.7208 1.1955 -30.6336 0.32744 -7.34193 -0.315795 0.883223 0.992634 29.0878 16.9014 -0.0 0.0 -0.0 12.4702 23.5658 -24.716 0.19267 5.09841 -69.1217 1.43475 35.4007 -0.457919 7.6795 -0.206595 0.958483 1.45973 7.90898 -6.5118 0.0 0.0 0.0 23.2692 3.5011 -5.76909 -20.5601 0.28856 3.12501 40.8276 13.0566 -4.9791 -36.7908 0.0 0.0 -0.0 0.0 -0.0 -7.93734 25.6672 -0.81727 -30.2499 -0.0344119 -4.58859 39.4268 -19.1319 4.95584 40.1968 -0.0 -0.0 0.0 0.0 0.0 
1572.65 694.952 -1491.9 -25.0803 78.7458 24.9805 2.79287 0.370891 2.52007 2.79638 0.209834 2.53855 2.80481 -0.204463 2.53899 2.79587 0.198956 2.53942 -11.1703 10.0142 -3.06805 -11.341 20.9428 -0.230031 -0.0 0.0 -0.0 -6.87764 23.3189 -6.84477 -8.83935 -11.6403 69.7611 1.42503 -35.2169 0.452297 -7.93373 -0.346145 0.952558 0.628976 29.1339 14.8697 -0.0 0.0 -0.0 12.5149 23.677 -24.8081 -1.3994 3.97591 -69.409 1.21548 31.0514 -0.337681 6.83197 -0.190129 0.851472 1.65695 8.21735 -7.72135 0.0 0.0 0.0 22.4519 3.92493 -5.20232 -22.507 0.257441 3.42212 40.5789 9.99852 -4.92693 -36.9087 0.0 0.0 -0.0 0.0 -0.0 -3.14736 20.7 -1.33301 -39.227 0.418323 -5.88978 39.4501 -17.864 4.93204 39.5861 -0.0 -0.0 0.0 0.0 0.0 
1558.64 699.241 -1488.06 -23.7569 79.8085 23.58 2.60076 0.309552 2.47426 2.60416 0.151532 2.48893 2.61007 -0.262433 2.47969 2.60151 0.132357 2.49002 -10.91 10.0653 -2.87976 -11.0701 20.9109 -0.0838418 -0.0 0.0 -0.0 -6.87695 23.2619 -6.862 -6.10644 -13.2302 69.7244 1.64702 -39.2074 0.586634 -7.7742 -0.337893 0.933898 0.721777 28.96 15.3367 -0.0 0.0 -0.0 12.638 23.6519 -25.0947 -3.5314 2.44292 -69.3812 1.04263 27.3153 -0.253357 7.2327 -0.198112 0.90204 1.53564 7.2702 -7.30046 0.0 0.0 0.0 21.2027 4.09656 -4.6609 -23.7284 0.232773 3.60791 40.7906 11.2622 -4.95614 -35.6654 0.0 0.0 -0.0 0.0 -0.0 1.25574 20.2354 -2.54256 -45.2981 0.837761 -6.72347 41.5659 -15.6358 5.08099 40.0488 -0.0 -0.0 0.0 0.0 0.0 
1547.13 704.433 -1481.65 -28.3235 81.8491 27.911 2.65435 0.137437 2.50416 2.65783 -0.0221373 2.50783 2.65604 -0.435015 2.46994 2.64753 -0.0396028 2.50762 -13.1418 9.32878 -2.93464 -13.3784 19.5786 0.0596547 -0.0 0.0 -0.0 -6.75746 22.3247 -6.9863 -1.29039 -14.0321 70.2938 1.64426 -39.1604 0.58489 -8.65322 -0.384008 1.03643 0.569577 29.0692 14.5182 -0.0 0.0 -0.0 12.3557 22.384 -24.5621 -5.58504 0.552794 -70.026 0.884143 23.6521 -0.18513 7.3351 -0.200095 0.91497 1.24782 6.42261 -5.70501 0.0 0.0 0.0 18.4843 5.85311 -3.85109 -19.5292 0.300943 2.96731 38.8067 1.99947 -4.75997 -36.8923 0.0 0.0 -0.0 0.0 -0.0 8.24714 18.3792 -4.01457 -54.988 1.68377 -7.95059 41.4809 -19.1043 5.14209 39.8223 -0.0 -0.0 0.0 0.0 0.0 
1534.23 702.012 -1479.75 -25.027 83.5521 24.6759 2.32502 0.0087709 2.42311 2.32827 -0.14539 2.41876 2.32158 -0.555777 2.35856 2.31386 -0.176425 2.41669 -13.9609 9.95287 -2.69505 -14.2738 20.6234 0.646047 -0.0 0.0 -0.0 -6.65104 20.9386 -7.25945 1.94739 -15.4932 70.1393 1.75137 -40.9406 0.65382 -8.77668 -0.390611 1.05078 0.496598 28.3992 13.8997 -0.0 0.0 -0.0 12.4628 23.1288 -24.7407 -7.08492 -0.442144 -69.8584 0.739866 20.1283 -0.131314 7.09863 -0.195481 0.885116 1.38364 6.6839 -6.51616 0.0 0.0 0.0 16.7656 4.59352 -3.35583 -19.7061 0.299019 2.9944 40.0112 3.70095 -4.85994 -36.9284 0.0 0.0 -0.0 0.0 -0.0 11.4707 16.606 -4.40916 -60.6498 2.27055 -8.59664 41.4587 -17.5456 5.10684 39.8296 -0.0 -0.0 0.0 0.0 0.0 
1524.67 707.06 -1476.97 -19.1278 83.3262 18.7147 2.22637 -0.0461017 2.40614 2.22957 -0.199072 2.39834 2.22074 -0.609328 2.32821 2.21325 -0.234096 2.39517 -14.8366 9.93588 -2.68169 -15.1931 20.5854 0.820447 -0.0 0.0 -0.0 -6.66651 20.0915 -7.54243 4.39354 -16.0283 70.0661 1.74649 -40.8615 0.650625 -9.21701 -0.414414 1.10182 0.389128 28.1059 13.2026 -0.0 0.0 -0.0 12.4216 23.0078 -24.6572 -8.7562 -1.35073 -70.241 0.645414 17.7302 -0.100667 7.05638 -0.194643 0.879784 1.39196 6.58184 -6.61592 0.0 0.0 0.0 14.6409 4.99946 -3.28263 -18.624 0.309476 2.82869 39.5395 1.49864 -4.82678 -37.4219 0.0 0.0 -0.0 0.0 -0.0 15.3907 14.6113 -4.64976 -64.7126 2.72977 -9.02338 40.6744 -18.7737 5.06254 39.3955 -0.0 -0.0 0.0 0.0 0.0 
